<svg xmlns="http://www.w3.org/2000/svg" width="24" height="24" viewBox="0 0 24 24" fill="none">
  <g clip-path="url(#clip0_1437_268)">
    <path d="M18.3076 0H5.69236C2.54829 0 0 2.54829 0 5.69236V18.3083C0 21.4517 2.54829 24.0007 5.69236 24.0007H18.3083C21.4517 24.0007 24.0007 21.4524 24.0007 18.3083V5.69236C24.0007 2.54894 21.4524 0 18.3083 0H18.3076ZM18.2101 17.6553C18.1691 17.7502 18.1379 17.8498 18.0852 17.9382C17.9889 18.1008 17.8205 18.16 17.6514 18.2133H17.0205C16.7597 18.1893 16.4976 18.1698 16.2374 18.1411C14.2628 17.9233 12.4566 17.2514 10.8254 16.1177C9.14341 14.9489 7.85496 13.438 6.9574 11.598C6.39154 10.4384 6.02472 9.21561 5.88228 7.93106C5.83154 7.47382 5.80683 7.01268 5.78927 6.55285C5.77041 6.05398 6.03577 5.79057 6.53138 5.78992C7.30797 5.78862 8.08455 5.78797 8.86049 5.78992C9.23902 5.79122 9.48618 5.97008 9.55902 6.30049C9.58244 6.40585 9.58374 6.51707 9.58504 6.62634C9.59805 7.40032 9.73594 8.15219 9.97073 8.8878C10.078 9.22406 10 9.5161 9.74634 9.76C9.2826 10.2055 8.81886 10.6511 8.35187 11.0927C8.28813 11.1525 8.27902 11.1954 8.3213 11.2761C9.15122 12.8631 10.3434 14.121 11.8192 15.1187C12.1132 15.3177 12.4267 15.4881 12.7278 15.6761C12.8 15.721 12.8423 15.7138 12.9021 15.6533C13.3659 15.1844 13.8302 14.7167 14.3018 14.2563C14.3948 14.1652 14.5093 14.082 14.6296 14.039C14.7272 14.0039 14.8605 14.0026 14.9567 14.0403C15.4153 14.2192 15.8875 14.3421 16.3733 14.4007C16.7779 14.4494 17.187 14.4618 17.5935 14.4963C17.9102 14.5229 18.0969 14.6816 18.1847 14.9821C18.1899 15.0003 18.201 15.0179 18.2094 15.0354V17.6559L18.2101 17.6553Z" fill="white"/>
  </g>
  <defs>
    <clipPath id="clip0_1437_268">
      <rect width="24" height="24" fill="white"/>
    </clipPath>
  </defs>
</svg>